<svg width="50" height="50" viewBox="0 0 200 200" fill="none" xmlns="http://www.w3.org/2000/svg">
<path d="M51.2985 97.5586L61.2595 127.246H41.0446L51.0544 97.5586H51.2985Z" fill="#007bff"/>
<path d="M164.726 126.27C164.726 115.869 159.55 109.277 151.445 109.277C142.802 109.277 137.724 115.43 137.724 126.27V129.443C137.724 140.088 142.802 146.484 151.445 146.484C159.843 146.484 164.726 140.039 164.726 129.443V126.27Z" fill="#007bff"/>
<path d="M43.75 0C47.2018 0 50 2.79822 50 6.25V12.5H150V6.25C150 2.79822 152.798 0 156.25 0C159.702 0 162.5 2.79822 162.5 6.25V12.5H175C188.807 12.5 200 23.6929 200 37.5V175C200 188.807 188.807 200 175 200H25C11.1929 200 0 188.807 0 175V37.5C0 23.6929 11.1929 12.5 25 12.5H37.5V6.25C37.5 2.79822 40.2982 0 43.75 0ZM168.182 37.5H31.8182C28.0526 37.5 25 40.2982 25 43.75V56.25C25 59.7018 28.0526 62.5 31.8182 62.5H168.182C171.947 62.5 175 59.7018 175 56.25V43.75C175 40.2982 171.947 37.5 168.182 37.5ZM32.0114 154.15L38.7497 134.131H63.5544L70.2927 154.15H79.277L55.5466 87.5H46.8552L23.1247 154.15H32.0114ZM123.125 102.832H114.677V134.619C114.677 142.773 109.502 147.412 102.129 147.412C95.3903 147.412 89.8727 144.336 89.8727 134.766V102.832H81.4255V137.158C81.4255 148.926 88.9938 154.98 99.5895 154.98C107.793 154.98 112.627 151.465 114.433 147.412H114.775V154.15H123.125V102.832ZM139.043 157.959H130.449C131.621 166.504 138.261 172.949 151.299 172.949C162.92 172.949 173.125 166.357 173.125 153.223V102.832H165.019V110.059H164.775C162.383 105.713 156.816 102.051 149.834 102.051C137.773 102.051 129.326 110.547 129.326 125.635V129.883C129.326 145.264 137.871 153.662 149.834 153.662C156.816 153.662 162.431 150 164.482 145.557H164.726V153.125C164.726 161.182 159.453 165.918 151.347 165.918C144.316 165.918 139.97 162.109 139.043 157.959Z" fill="#007bff"/>
</svg>
