<svg width="60" height="60" viewBox="0 0 200 200" fill="none" xmlns="http://www.w3.org/2000/svg">
<path d="M25 0C11.1929 0 0 11.1929 0 25V175C0 188.807 11.1929 200 25 200H175C188.807 200 200 188.807 200 175V25C200 11.1929 188.807 0 175 0H25ZM150.379 62.1209C153.995 65.7371 154.04 71.5727 150.512 75.2434L100.61 137.622C100.538 137.712 100.461 137.798 100.379 137.879C96.7179 141.54 90.782 141.54 87.1208 137.879L54.0402 104.799C50.379 101.137 50.379 95.2015 54.0402 91.5403C57.7014 87.8791 63.6373 87.8791 67.2985 91.5403L93.4675 117.709L136.872 62.4013C136.949 62.3029 137.032 62.2093 137.121 62.1209C140.782 58.4597 146.718 58.4597 150.379 62.1209Z" fill="#007bff"/>
</svg>
