<svg width="20" height="20" viewBox="0 0 200 200" fill="none" xmlns="http://www.w3.org/2000/svg">
<path d="M100 200C155.228 200 200 155.228 200 100C200 44.7715 155.228 0 100 0C44.7715 0 0 44.7715 0 100C0 155.228 44.7715 200 100 200ZM111.634 82.3486L99.1094 141.162C98.2305 145.41 99.4756 147.827 102.918 147.827C105.335 147.827 108.997 146.948 111.487 144.751L110.389 149.951C106.8 154.272 98.8896 157.422 92.0781 157.422C83.2891 157.422 79.5537 152.148 81.9707 140.942L91.1992 97.583C92.0049 93.9209 91.2725 92.6025 87.6104 91.7236L81.9707 90.6982L82.9961 85.9375L111.634 82.3486ZM100 68.75C93.0964 68.75 87.5 63.1536 87.5 56.25C87.5 49.3464 93.0964 43.75 100 43.75C106.904 43.75 112.5 49.3464 112.5 56.25C112.5 63.1536 106.904 68.75 100 68.75Z" fill="#757575"/>
</svg>
