<svg width="20" height="20" viewBox="0 0 200 200" fill="none" xmlns="http://www.w3.org/2000/svg">
<path d="M193.77 24.2418C196.211 26.6825 196.211 30.6398 193.77 33.0806L180.734 46.1166L155.734 21.1166L168.77 8.08058C171.211 5.6398 175.168 5.63981 177.609 8.08058L193.77 24.2418Z" fill="#54b4d3"/>
<path d="M171.895 54.9554L146.895 29.9554L61.7326 115.118C61.0465 115.804 60.5296 116.64 60.2228 117.561L50.1658 147.732C49.3514 150.175 51.6756 152.499 54.1186 151.685L84.2896 141.628C85.2101 141.321 86.0465 140.804 86.7326 140.118L171.895 54.9554Z" fill="#54b4d3"/>
<path fill-rule="evenodd" clip-rule="evenodd" d="M12.5 168.75C12.5 179.105 20.8947 187.5 31.25 187.5H168.75C179.105 187.5 187.5 179.105 187.5 168.75V93.75C187.5 90.2982 184.702 87.5 181.25 87.5C177.798 87.5 175 90.2982 175 93.75V168.75C175 172.202 172.202 175 168.75 175H31.25C27.7982 175 25 172.202 25 168.75V31.25C25 27.7982 27.7982 25 31.25 25H112.5C115.952 25 118.75 22.2018 118.75 18.75C118.75 15.2982 115.952 12.5 112.5 12.5H31.25C20.8947 12.5 12.5 20.8947 12.5 31.25V168.75Z" fill="#54b4d3"/>
</svg>
