<svg width="30" height="30" viewBox="0 0 200 200" fill="none" xmlns="http://www.w3.org/2000/svg">
<path d="M43.75 43.75C43.75 40.2982 40.9518 37.5 37.5 37.5C34.0482 37.5 31.25 40.2982 31.25 43.75L31.25 153.661L16.9194 139.331C14.4786 136.89 10.5214 136.89 8.08059 139.331C5.6398 141.771 5.6398 145.729 8.08059 148.169L33.07 173.159L33.1629 173.25C33.7427 173.809 34.404 174.235 35.1076 174.526C35.8445 174.831 36.6526 175 37.5 175C38.3474 175 39.1555 174.831 39.8924 174.526C40.6295 174.221 41.3202 173.769 41.9194 173.169L66.9194 148.169C69.3602 145.729 69.3602 141.771 66.9194 139.331C64.4786 136.89 60.5214 136.89 58.0806 139.331L43.75 153.661L43.75 43.75Z" fill="#007bff"/>
<path d="M93.75 50C90.2982 50 87.5 47.2018 87.5 43.75C87.5 40.2982 90.2982 37.5 93.75 37.5H106.25C109.702 37.5 112.5 40.2982 112.5 43.75C112.5 47.2018 109.702 50 106.25 50H93.75Z" fill="#007bff"/>
<path d="M93.75 87.5C90.2982 87.5 87.5 84.7018 87.5 81.25C87.5 77.7982 90.2982 75 93.75 75H131.25C134.702 75 137.5 77.7982 137.5 81.25C137.5 84.7018 134.702 87.5 131.25 87.5H93.75Z" fill="#007bff"/>
<path d="M93.75 125C90.2982 125 87.5 122.202 87.5 118.75C87.5 115.298 90.2982 112.5 93.75 112.5H156.25C159.702 112.5 162.5 115.298 162.5 118.75C162.5 122.202 159.702 125 156.25 125H93.75Z" fill="#007bff"/>
<path d="M87.5 156.25C87.5 159.702 90.2982 162.5 93.75 162.5H181.25C184.702 162.5 187.5 159.702 187.5 156.25C187.5 152.798 184.702 150 181.25 150H93.75C90.2982 150 87.5 152.798 87.5 156.25Z" fill="#007bff"/>
</svg>
