<svg width="20" height="20" viewBox="0 0 200 200" fill="none" xmlns="http://www.w3.org/2000/svg">
<path d="M31.25 12.5C24.3464 12.5 18.75 18.0964 18.75 25V37.5C18.75 44.4036 24.3464 50 31.25 50H37.5V162.5C37.5 176.307 48.6929 187.5 62.5 187.5H137.5C151.307 187.5 162.5 176.307 162.5 162.5V50H168.75C175.654 50 181.25 44.4036 181.25 37.5V25C181.25 18.0964 175.654 12.5 168.75 12.5H125C125 5.59644 119.404 0 112.5 0H87.5C80.5964 0 75 5.59644 75 12.5H31.25ZM68.75 62.5C72.2018 62.5 75 65.2982 75 68.75V156.25C75 159.702 72.2018 162.5 68.75 162.5C65.2982 162.5 62.5 159.702 62.5 156.25L62.5 68.75C62.5 65.2982 65.2982 62.5 68.75 62.5ZM100 62.5C103.452 62.5 106.25 65.2982 106.25 68.75V156.25C106.25 159.702 103.452 162.5 100 162.5C96.5482 162.5 93.75 159.702 93.75 156.25V68.75C93.75 65.2982 96.5482 62.5 100 62.5ZM137.5 68.75V156.25C137.5 159.702 134.702 162.5 131.25 162.5C127.798 162.5 125 159.702 125 156.25V68.75C125 65.2982 127.798 62.5 131.25 62.5C134.702 62.5 137.5 65.2982 137.5 68.75Z" fill="#dc4c64"/>
</svg>
